<mxfile host="app.diagrams.net" modified="2023-01-05T00:47:23.323Z" agent="5.0 (Windows NT 10.0; Win64; x64) AppleWebKit/537.36 (KHTML, like Gecko) Chrome/108.0.0.0 Safari/537.36 Edg/108.0.1462.46" version="20.8.0" etag="yfkhQ1NizE-7bGPtgMUR" type="github">
  <diagram id="ZFC9ssaXQDbK8t4ipNAw" name="페이지-1">
    <mxGraphModel dx="868" dy="488" grid="1" gridSize="10" guides="1" tooltips="1" connect="1" arrows="1" fold="1" page="1" pageScale="1" pageWidth="827" pageHeight="1169" math="0" shadow="0">
      <root>
        <mxCell id="0" />
        <mxCell id="1" parent="0" />
        <mxCell id="c6aR1PdYJ-23t0awHHtp-16" value="" style="edgeStyle=orthogonalEdgeStyle;rounded=0;orthogonalLoop=1;jettySize=auto;html=1;fontSize=9;" edge="1" parent="1" source="c6aR1PdYJ-23t0awHHtp-14" target="c6aR1PdYJ-23t0awHHtp-15">
          <mxGeometry relative="1" as="geometry" />
        </mxCell>
        <mxCell id="c6aR1PdYJ-23t0awHHtp-14" value="&lt;font size=&quot;1&quot;&gt;Reseller ID&amp;nbsp;&lt;br&gt;확인&lt;br&gt;&lt;/font&gt;" style="rounded=0;whiteSpace=wrap;html=1;" vertex="1" parent="1">
          <mxGeometry x="20" y="100" width="76" height="30" as="geometry" />
        </mxCell>
        <mxCell id="c6aR1PdYJ-23t0awHHtp-18" value="" style="edgeStyle=orthogonalEdgeStyle;rounded=0;orthogonalLoop=1;jettySize=auto;html=1;fontSize=9;" edge="1" parent="1" source="c6aR1PdYJ-23t0awHHtp-15" target="c6aR1PdYJ-23t0awHHtp-17">
          <mxGeometry relative="1" as="geometry" />
        </mxCell>
        <mxCell id="c6aR1PdYJ-23t0awHHtp-20" value="" style="edgeStyle=orthogonalEdgeStyle;rounded=0;orthogonalLoop=1;jettySize=auto;html=1;fontSize=9;" edge="1" parent="1" source="c6aR1PdYJ-23t0awHHtp-15" target="c6aR1PdYJ-23t0awHHtp-19">
          <mxGeometry relative="1" as="geometry" />
        </mxCell>
        <mxCell id="c6aR1PdYJ-23t0awHHtp-15" value="&lt;font size=&quot;1&quot;&gt;D-U-N-S&lt;br&gt;Number 확인&lt;br&gt;&lt;/font&gt;" style="rounded=0;whiteSpace=wrap;html=1;" vertex="1" parent="1">
          <mxGeometry x="134" y="100" width="76" height="30" as="geometry" />
        </mxCell>
        <mxCell id="c6aR1PdYJ-23t0awHHtp-34" value="" style="edgeStyle=orthogonalEdgeStyle;rounded=0;orthogonalLoop=1;jettySize=auto;html=1;fontSize=9;" edge="1" parent="1" source="c6aR1PdYJ-23t0awHHtp-17" target="c6aR1PdYJ-23t0awHHtp-33">
          <mxGeometry relative="1" as="geometry" />
        </mxCell>
        <mxCell id="c6aR1PdYJ-23t0awHHtp-17" value="&lt;font size=&quot;1&quot;&gt;Apple Business&lt;br&gt;관리자 로그인&lt;br&gt;&lt;/font&gt;" style="rounded=0;whiteSpace=wrap;html=1;" vertex="1" parent="1">
          <mxGeometry x="250" y="100" width="76" height="30" as="geometry" />
        </mxCell>
        <mxCell id="c6aR1PdYJ-23t0awHHtp-27" value="" style="edgeStyle=orthogonalEdgeStyle;rounded=0;orthogonalLoop=1;jettySize=auto;html=1;fontSize=9;" edge="1" parent="1" source="c6aR1PdYJ-23t0awHHtp-19" target="c6aR1PdYJ-23t0awHHtp-26">
          <mxGeometry relative="1" as="geometry" />
        </mxCell>
        <mxCell id="c6aR1PdYJ-23t0awHHtp-19" value="&lt;span style=&quot;font-size: x-small;&quot;&gt;D-U-N-S&lt;/span&gt;&lt;br style=&quot;border-color: var(--border-color); font-size: x-small;&quot;&gt;&lt;span style=&quot;font-size: x-small;&quot;&gt;Number 발급&lt;/span&gt;&lt;font size=&quot;1&quot;&gt;&lt;br&gt;&lt;/font&gt;" style="rounded=0;whiteSpace=wrap;html=1;" vertex="1" parent="1">
          <mxGeometry x="134" y="165" width="76" height="30" as="geometry" />
        </mxCell>
        <mxCell id="c6aR1PdYJ-23t0awHHtp-25" value="&amp;nbsp;Yes" style="text;html=1;strokeColor=none;fillColor=none;align=center;verticalAlign=middle;whiteSpace=wrap;rounded=0;fontSize=9;" vertex="1" parent="1">
          <mxGeometry x="80" y="110" width="60" height="30" as="geometry" />
        </mxCell>
        <mxCell id="c6aR1PdYJ-23t0awHHtp-30" value="" style="edgeStyle=orthogonalEdgeStyle;rounded=0;orthogonalLoop=1;jettySize=auto;html=1;fontSize=9;" edge="1" parent="1" source="c6aR1PdYJ-23t0awHHtp-26" target="c6aR1PdYJ-23t0awHHtp-28">
          <mxGeometry relative="1" as="geometry" />
        </mxCell>
        <mxCell id="c6aR1PdYJ-23t0awHHtp-26" value="&lt;font size=&quot;1&quot;&gt;Apple Business&lt;br&gt;조직 등록&lt;br&gt;&lt;/font&gt;" style="rounded=0;whiteSpace=wrap;html=1;" vertex="1" parent="1">
          <mxGeometry x="134" y="230" width="76" height="30" as="geometry" />
        </mxCell>
        <mxCell id="c6aR1PdYJ-23t0awHHtp-28" value="&lt;font size=&quot;1&quot;&gt;Apple Business&lt;br&gt;관리자 계정 생성&lt;br&gt;&lt;/font&gt;" style="rounded=0;whiteSpace=wrap;html=1;" vertex="1" parent="1">
          <mxGeometry x="122" y="290" width="100" height="30" as="geometry" />
        </mxCell>
        <mxCell id="c6aR1PdYJ-23t0awHHtp-31" value="&amp;nbsp;Yes" style="text;html=1;strokeColor=none;fillColor=none;align=center;verticalAlign=middle;whiteSpace=wrap;rounded=0;fontSize=9;" vertex="1" parent="1">
          <mxGeometry x="200" y="110" width="60" height="30" as="geometry" />
        </mxCell>
        <mxCell id="c6aR1PdYJ-23t0awHHtp-32" value="No" style="text;html=1;strokeColor=none;fillColor=none;align=center;verticalAlign=middle;whiteSpace=wrap;rounded=0;fontSize=9;" vertex="1" parent="1">
          <mxGeometry x="160" y="130" width="60" height="30" as="geometry" />
        </mxCell>
        <mxCell id="c6aR1PdYJ-23t0awHHtp-37" value="" style="edgeStyle=orthogonalEdgeStyle;rounded=0;orthogonalLoop=1;jettySize=auto;html=1;fontSize=9;" edge="1" parent="1" source="c6aR1PdYJ-23t0awHHtp-33" target="c6aR1PdYJ-23t0awHHtp-36">
          <mxGeometry relative="1" as="geometry" />
        </mxCell>
        <mxCell id="c6aR1PdYJ-23t0awHHtp-33" value="&lt;font size=&quot;1&quot;&gt;Apple Business&lt;br&gt;기기 등록&lt;br&gt;&lt;/font&gt;" style="rounded=0;whiteSpace=wrap;html=1;" vertex="1" parent="1">
          <mxGeometry x="360" y="100" width="76" height="30" as="geometry" />
        </mxCell>
        <mxCell id="c6aR1PdYJ-23t0awHHtp-40" value="" style="edgeStyle=orthogonalEdgeStyle;rounded=0;orthogonalLoop=1;jettySize=auto;html=1;fontSize=9;" edge="1" parent="1" source="c6aR1PdYJ-23t0awHHtp-36" target="c6aR1PdYJ-23t0awHHtp-39">
          <mxGeometry relative="1" as="geometry" />
        </mxCell>
        <mxCell id="c6aR1PdYJ-23t0awHHtp-36" value="&lt;font size=&quot;1&quot;&gt;MDM 서버 추가&lt;br&gt;&lt;/font&gt;" style="rounded=0;whiteSpace=wrap;html=1;" vertex="1" parent="1">
          <mxGeometry x="470" y="100" width="76" height="30" as="geometry" />
        </mxCell>
        <mxCell id="c6aR1PdYJ-23t0awHHtp-43" value="" style="edgeStyle=orthogonalEdgeStyle;rounded=0;orthogonalLoop=1;jettySize=auto;html=1;fontSize=9;" edge="1" parent="1" source="c6aR1PdYJ-23t0awHHtp-39" target="c6aR1PdYJ-23t0awHHtp-42">
          <mxGeometry relative="1" as="geometry" />
        </mxCell>
        <mxCell id="c6aR1PdYJ-23t0awHHtp-39" value="intune 디바이스 프로필&amp;amp; 정책 생성" style="rounded=0;whiteSpace=wrap;html=1;" vertex="1" parent="1">
          <mxGeometry x="580" y="90" width="80" height="50" as="geometry" />
        </mxCell>
        <mxCell id="c6aR1PdYJ-23t0awHHtp-42" value="디바이스 &lt;br&gt;배포" style="rounded=0;whiteSpace=wrap;html=1;" vertex="1" parent="1">
          <mxGeometry x="690" y="100" width="76" height="30" as="geometry" />
        </mxCell>
      </root>
    </mxGraphModel>
  </diagram>
</mxfile>
